<?xml version="1.0" standalone="no"?>
<!DOCTYPE svg PUBLIC "-//W3C//DTD SVG 20010904//EN"
 "http://www.w3.org/TR/2001/REC-SVG-20010904/DTD/svg10.dtd">
<svg version="1.0" xmlns="http://www.w3.org/2000/svg"
 width="1185.000000pt" height="1148.000000pt" viewBox="0 0 1185.000000 1148.000000"
 preserveAspectRatio="xMidYMid meet">

<g transform="translate(0.000000,1148.000000) scale(0.100000,-0.100000)"
fill="#000000" stroke="none">
<path d="M0 5740 l0 -5740 5925 0 5925 0 0 5740 0 5740 -5925 0 -5925 0 0
-5740z m6394 4976 c937 -119 1690 -420 2396 -957 63 -48 126 -98 140 -111 14
-13 70 -62 126 -109 187 -162 564 -564 679 -728 17 -23 43 -59 59 -79 41 -53
186 -274 186 -284 0 -5 8 -18 18 -29 11 -10 25 -32 33 -47 7 -15 30 -53 51
-85 47 -73 225 -438 273 -560 20 -50 43 -107 51 -124 62 -136 181 -513 189
-593 0 -9 4 -21 8 -27 8 -13 34 -146 48 -251 5 -40 14 -84 19 -98 12 -31 40
-288 40 -367 0 -38 4 -56 10 -52 7 4 9 -2 6 -17 -3 -12 -8 -77 -10 -143 -7
-177 -9 -187 -16 -110 -4 39 -12 89 -19 111 -6 23 -13 77 -15 120 -3 44 -10
120 -16 169 -7 50 -12 101 -11 115 0 14 -4 36 -9 50 -6 14 -14 61 -20 105 -10
86 -18 126 -45 220 -9 33 -26 98 -37 145 -26 112 -43 182 -50 200 -3 8 -31 94
-63 190 -69 214 -75 229 -160 420 -87 196 -183 377 -290 545 -120 187 -313
469 -334 485 -3 3 -46 52 -95 110 -50 58 -97 112 -105 122 -9 9 -50 54 -91
100 -41 46 -119 122 -172 168 -54 47 -131 113 -170 148 -94 82 -229 184 -398
303 -140 98 -277 189 -286 189 -2 0 -21 11 -42 24 -117 73 -393 211 -562 279
-257 103 -645 223 -800 246 -36 6 -108 19 -160 30 -495 106 -1152 106 -1700
-1 -282 -55 -539 -124 -632 -169 -10 -5 -25 -6 -34 -2 -11 4 -15 2 -11 -4 4
-6 -9 -12 -32 -16 -66 -8 -297 -107 -536 -228 -255 -128 -300 -155 -525 -306
-234 -157 -547 -411 -691 -559 -309 -318 -347 -362 -467 -533 -48 -68 -101
-142 -117 -165 -17 -23 -66 -97 -109 -166 -44 -69 -89 -141 -101 -160 -36 -56
-147 -273 -218 -426 -70 -151 -140 -328 -183 -464 -14 -47 -37 -115 -50 -152
-13 -38 -40 -134 -59 -215 -20 -82 -47 -193 -61 -248 -14 -55 -28 -133 -31
-172 -3 -40 -9 -73 -12 -73 -3 0 -6 -10 -7 -22 -2 -65 -15 -170 -22 -186 -16
-29 -23 -159 -24 -443 -1 -151 -3 -262 -5 -246 -3 15 -8 27 -13 27 -25 0 -18
680 9 810 5 25 14 86 21 135 12 101 47 294 60 340 5 17 15 62 23 100 58 277
183 617 356 975 23 47 48 96 57 110 8 14 26 50 41 80 14 30 63 119 109 198 46
79 84 147 84 152 0 4 3 10 8 12 4 2 33 41 64 88 100 149 119 175 298 395 144
176 427 461 590 595 30 25 57 47 60 50 3 3 70 55 150 116 566 428 1177 709
1875 863 230 51 358 69 720 105 103 10 637 -3 759 -18z m-137 -311 c393 -33
732 -104 1110 -231 192 -64 282 -103 537 -231 516 -260 942 -583 1322 -1003
33 -35 69 -75 82 -88 36 -38 250 -324 344 -462 102 -150 144 -219 285 -475
170 -309 357 -845 419 -1204 8 -47 17 -97 20 -111 5 -28 38 -279 52 -405 9
-78 8 -592 -1 -601 -2 -3 -2 -36 1 -74 3 -50 0 -80 -12 -109 -9 -23 -14 -41
-12 -41 3 0 -1 -12 -9 -27 -10 -18 -11 -32 -4 -45 5 -10 7 -23 3 -29 -6 -10
-15 -101 -15 -154 -1 -60 -12 -134 -20 -129 -5 3 -9 -6 -9 -20 0 -14 -4 -27
-9 -30 -5 -3 -7 -14 -4 -25 4 -15 0 -18 -21 -14 -30 6 -29 4 -17 36 7 18 6 30
-4 43 -20 28 -35 7 -41 -54 -4 -42 -2 -51 10 -46 9 3 17 -3 21 -15 4 -14 15
-21 32 -21 20 0 24 -3 18 -17 -4 -10 -13 -32 -19 -49 -6 -18 -17 -39 -25 -47
-7 -9 -12 -24 -11 -34 5 -40 -1 -93 -9 -93 -5 0 -11 18 -15 39 -3 22 -11 41
-17 43 -14 5 21 77 39 78 17 0 15 55 -3 70 -12 10 -15 10 -15 0 0 -9 -4 -9
-16 1 -15 12 -16 11 -10 -8 4 -12 2 -24 -4 -28 -5 -3 -10 -11 -10 -16 0 -6 5
-7 10 -4 6 3 10 1 10 -4 0 -18 -38 -12 -43 7 -2 9 -2 -15 1 -53 3 -57 1 -73
-12 -84 -9 -7 -16 -24 -16 -38 0 -13 -7 -37 -15 -53 -9 -17 -13 -30 -9 -30 4
0 1 -6 -5 -14 -6 -7 -14 -41 -18 -76 -3 -35 -17 -84 -30 -109 -12 -25 -23 -52
-23 -58 0 -7 -4 -13 -8 -13 -5 0 -19 -33 -32 -73 -22 -66 -45 -121 -121 -283
-16 -34 -29 -64 -29 -68 0 -12 -111 -241 -134 -276 -20 -30 -98 -159 -160
-263 -70 -116 -210 -310 -335 -462 -269 -328 -594 -614 -1023 -898 -380 -251
-864 -464 -1283 -562 -60 -15 -146 -35 -190 -46 -108 -26 -304 -54 -510 -75
-184 -18 -587 -15 -735 5 -41 6 -113 15 -160 21 -385 50 -885 194 -1180 340
-52 26 -138 68 -190 93 -53 25 -172 91 -265 147 -398 239 -745 525 -1046 861
-116 130 -271 329 -334 429 -15 25 -31 47 -34 50 -17 13 -183 289 -207 343 -9
20 -20 37 -25 37 -5 0 -9 5 -9 11 0 6 -8 23 -19 37 -43 62 -174 339 -188 400
-3 12 -9 22 -14 22 -5 0 -9 11 -9 24 0 14 -4 28 -10 31 -5 3 -10 15 -10 26 0
10 -4 19 -10 19 -5 0 -10 7 -10 16 0 8 -7 22 -15 30 -8 8 -12 21 -9 29 3 7 -9
44 -27 82 -51 110 -53 113 -46 120 4 3 7 -2 7 -13 0 -16 2 -17 10 -4 12 19 13
43 1 35 -5 -3 -13 0 -17 6 -4 8 -3 9 4 5 17 -10 15 9 -2 24 -8 6 -12 18 -9 26
7 18 23 18 23 0 0 -7 9 -35 19 -62 10 -27 45 -121 76 -209 84 -234 216 -528
318 -709 49 -87 93 -164 98 -170 6 -6 41 -58 79 -116 251 -381 542 -696 940
-1020 106 -86 523 -370 544 -370 1 0 74 -39 162 -86 284 -154 707 -310 1049
-387 143 -32 358 -68 502 -82 174 -18 583 -20 770 -4 309 25 715 106 933 185
382 140 534 206 756 330 297 166 498 306 789 548 123 102 445 434 553 571 59
75 258 359 298 425 129 217 252 458 322 630 17 41 44 107 60 145 38 92 148
420 157 468 4 20 11 37 16 37 5 0 9 15 10 33 0 43 34 215 43 225 5 4 7 -4 6
-18 -4 -41 0 -46 14 -21 14 26 10 83 -5 59 -12 -18 -11 34 2 92 5 25 11 63 13
85 7 65 18 108 25 96 4 -6 5 15 3 47 -2 33 1 106 8 163 18 165 21 641 5 793
-33 299 -59 438 -148 781 -48 187 -135 443 -195 575 -11 25 -35 81 -53 125
-42 108 -131 283 -189 375 -113 181 -150 241 -150 246 0 7 -76 118 -92 135 -7
8 -36 43 -63 78 -28 35 -84 104 -125 154 -41 49 -88 106 -103 126 -70 91 -405
405 -557 521 -25 19 -52 40 -60 47 -41 33 -255 182 -330 231 -121 78 -392 225
-545 294 -306 140 -661 249 -995 307 -293 50 -359 55 -735 56 -490 0 -663 -19
-1060 -115 -468 -113 -934 -322 -1385 -623 -118 -79 -272 -192 -312 -229 -7
-7 -34 -30 -60 -51 -26 -21 -53 -43 -60 -50 -7 -7 -49 -44 -93 -83 -117 -105
-181 -169 -259 -259 -38 -44 -90 -103 -115 -131 -137 -153 -196 -230 -327
-432 -115 -176 -118 -183 -194 -322 -107 -198 -169 -340 -264 -605 -157 -437
-214 -699 -267 -1235 -17 -172 -6 -573 21 -805 6 -44 10 -107 10 -141 0 -34 4
-64 9 -66 4 -1 11 -20 15 -41 5 -25 4 -37 -3 -33 -5 4 -3 -7 5 -23 8 -16 25
-87 38 -157 13 -71 31 -154 39 -184 22 -81 29 -128 17 -110 -5 8 -12 34 -16
58 -4 24 -13 46 -20 49 -9 3 -14 20 -14 44 0 24 -4 38 -11 37 -17 -4 -31 51
-24 102 3 27 1 40 -4 32 -11 -19 -18 0 -27 78 -4 33 -11 63 -15 66 -5 3 -9 24
-9 47 0 23 -7 51 -15 61 -15 19 -15 19 -15 -2 0 -12 -4 -22 -10 -22 -5 0 -10
-7 -10 -16 0 -13 -3 -14 -15 -4 -8 7 -12 17 -8 23 4 6 -3 8 -20 3 -30 -7 -34
5 -42 122 -5 59 -3 74 10 78 8 4 15 10 15 16 0 5 -4 7 -8 4 -21 -13 -32 18
-41 124 -30 356 3 934 75 1275 51 243 48 234 126 484 53 172 203 544 233 581
7 8 30 48 51 89 55 104 61 113 78 123 9 5 16 15 16 23 0 7 4 15 8 17 5 2 15
15 23 29 8 14 30 50 50 80 20 30 51 81 68 114 18 33 40 69 50 80 10 11 28 37
40 58 13 21 29 43 35 50 7 7 25 32 40 55 15 24 49 71 76 104 28 34 50 67 50
74 0 6 6 17 14 24 8 6 16 26 18 43 2 19 8 31 15 30 7 -2 10 3 7 11 -3 7 1 20
8 27 7 8 29 34 49 59 71 88 142 162 301 316 238 230 585 488 883 654 33 18 76
42 95 53 128 72 420 208 566 262 130 48 509 153 664 183 223 45 356 62 655 85
114 9 421 5 572 -8z m-64 -470 c8 -8 27 -47 43 -87 33 -88 173 -448 181 -465
4 -10 -9 -13 -47 -13 -67 0 -87 12 -100 61 -19 68 -32 75 -159 82 -62 3 -118
4 -125 1 -7 -3 -20 -27 -30 -55 -10 -27 -27 -54 -37 -60 -17 -9 -119 -3 -119
8 0 6 246 497 261 521 11 18 23 22 66 22 32 0 57 -6 66 -15z m-536 -130 c7
-71 17 -174 23 -228 16 -154 14 -184 -12 -191 -40 -10 -98 -7 -102 7 -5 15
-36 470 -36 515 l0 33 57 -3 58 -3 12 -130z m1081 64 c12 -5 22 -15 22 -23 0
-17 -30 -156 -66 -305 -14 -60 -21 -108 -16 -113 5 -5 62 -22 127 -38 64 -16
120 -31 123 -34 3 -3 0 -24 -7 -46 -15 -49 -23 -50 -170 -15 -58 14 -133 31
-166 39 -54 11 -60 15 -59 37 2 25 122 497 130 511 5 8 39 3 82 -13z m-1515
-27 c97 -43 157 -144 157 -264 0 -106 -61 -197 -164 -244 -43 -19 -168 -50
-282 -71 l-31 -5 -16 83 c-29 151 -78 369 -93 411 -8 23 -12 43 -10 45 4 4
215 57 266 67 45 8 128 -2 173 -22z m-691 -184 c10 -18 45 -98 78 -178 34 -80
75 -173 91 -208 16 -34 29 -64 29 -67 0 -13 -68 -45 -95 -45 -18 0 -63 19
-110 46 -158 91 -264 143 -270 134 -4 -6 6 -36 21 -68 15 -31 44 -94 65 -138
22 -45 39 -89 39 -97 0 -17 -57 -47 -89 -47 -12 0 -24 8 -28 18 -3 9 -18 45
-34 80 -16 34 -29 64 -29 67 0 3 -25 58 -56 123 -100 210 -100 212 -37 238
l36 16 181 -91 c100 -50 185 -91 189 -91 17 0 4 48 -42 149 -69 150 -69 153
-29 173 51 26 71 22 90 -14z m3190 -145 l50 -27 -7 -55 c-15 -138 -26 -277
-32 -409 -3 -78 -10 -145 -15 -148 -8 -5 -75 39 -91 60 -4 6 -5 34 -2 61 3 28
2 55 -2 61 -5 5 -57 36 -116 67 l-109 57 -41 -35 c-22 -19 -46 -35 -52 -35
-17 0 -95 39 -95 48 0 5 10 17 23 28 12 10 99 84 192 164 177 152 224 189 239
190 4 0 31 -12 58 -27z m-3821 -293 c146 -210 153 -223 153 -293 -1 -71 -15
-105 -71 -161 -109 -110 -219 -125 -321 -43 -47 37 -242 294 -242 319 0 15 37
50 77 72 7 3 46 -44 101 -122 98 -138 153 -199 189 -208 79 -20 165 73 149
160 -4 18 -29 64 -57 102 -89 123 -149 216 -149 233 0 13 58 56 81 60 4 1 44
-53 90 -119z m4364 -49 c83 -63 148 -131 169 -176 38 -79 2 -182 -86 -245 -70
-51 -169 -34 -265 44 -30 25 -63 46 -72 46 -9 -1 -34 -23 -55 -50 -47 -60 -70
-63 -115 -16 l-32 33 62 79 c35 43 89 111 122 149 61 72 65 77 131 157 44 55
41 55 141 -21z m-1930 -5 c205 -27 472 -103 680 -191 281 -120 416 -200 717
-425 63 -47 349 -337 424 -430 219 -271 364 -531 516 -920 48 -123 113 -382
123 -494 4 -34 8 -81 10 -106 3 -25 9 -65 15 -90 13 -58 18 -349 7 -462 -7
-65 -12 -88 -23 -88 -10 0 -14 14 -15 53 0 28 -4 106 -8 172 -5 81 -4 122 3
127 7 5 6 22 -2 55 -8 26 -16 73 -19 103 -6 68 -19 152 -31 205 -5 22 -19 84
-31 138 -20 88 -99 373 -117 422 -52 140 -156 349 -245 490 -64 103 -214 312
-267 374 -26 30 -52 61 -58 70 -20 28 -298 279 -386 348 -131 103 -219 158
-423 264 -208 107 -287 139 -493 198 -314 91 -514 116 -867 108 -313 -7 -584
-52 -847 -141 -115 -38 -419 -178 -543 -249 -232 -133 -560 -415 -735 -632
-70 -87 -213 -289 -271 -382 -157 -250 -329 -741 -373 -1063 -21 -155 -27
-255 -30 -563 -2 -153 -6 -280 -9 -283 -13 -13 -31 46 -35 114 -3 41 -8 69
-11 63 -10 -15 -16 122 -13 264 8 388 100 829 243 1174 118 284 344 634 540
836 48 50 111 116 140 148 181 199 552 451 859 585 284 123 585 198 900 226
101 9 570 -4 675 -18z m-194 -276 c347 -35 718 -145 994 -297 88 -48 340 -211
369 -238 6 -5 37 -29 68 -53 87 -64 235 -210 308 -302 36 -45 91 -114 124
-153 133 -162 320 -494 385 -684 11 -32 34 -96 51 -143 52 -143 98 -391 107
-586 5 -102 5 -172 0 -175 -5 -4 -7 -22 -3 -42 3 -19 2 -45 -3 -58 -7 -17 -10
-19 -10 -6 -1 21 -21 23 -21 1 0 -8 -4 -13 -9 -9 -10 5 -17 0 -66 -56 -69 -78
-134 -162 -139 -177 -2 -9 -7 -30 -11 -46 -8 -36 -22 -23 -26 24 -5 87 0 107
38 147 54 55 126 143 148 181 21 35 51 43 58 15 4 -14 5 -12 6 5 0 12 -3 22
-9 22 -6 0 -10 26 -10 58 0 89 -40 317 -91 525 -42 169 -98 317 -194 512 -76
156 -90 177 -162 251 -43 44 -94 92 -114 107 -56 42 -224 86 -245 64 -12 -12
-54 21 -139 107 -147 150 -231 218 -407 333 -104 68 -190 115 -280 152 -41 17
-48 24 -58 63 -7 23 -16 50 -20 58 -5 8 -19 34 -30 57 -37 74 -100 127 -182
156 -40 14 -98 28 -128 31 l-55 6 36 -14 c101 -39 170 -99 250 -217 23 -35 45
-66 48 -69 3 -3 12 -15 19 -27 10 -19 10 -23 -2 -23 -8 0 -18 5 -21 10 -3 6
-19 10 -35 10 -38 0 -242 -50 -388 -96 -111 -34 -268 -101 -260 -110 3 -2 54
16 115 40 160 64 200 77 278 91 116 22 93 2 -53 -43 -166 -53 -237 -81 -365
-144 l-98 -49 -122 61 c-67 34 -124 62 -127 62 -15 1 -52 19 -48 23 5 5 61
-11 90 -26 10 -5 23 -9 29 -9 20 0 83 -33 119 -62 42 -34 47 -34 85 -2 22 19
24 23 7 14 -29 -14 -43 -10 -171 52 -202 98 -601 215 -643 189 -25 -16 -36
-14 -43 8 -6 21 33 83 114 179 55 65 108 103 181 128 69 23 43 30 -41 10 -96
-22 -153 -50 -199 -98 -63 -64 -122 -161 -134 -219 -6 -27 -9 -29 -126 -80
-98 -43 -331 -191 -412 -262 -20 -18 -56 -48 -79 -67 -92 -76 -126 -106 -174
-154 -27 -28 -54 -51 -60 -53 -5 -1 -46 -9 -89 -18 -89 -17 -212 -81 -279
-144 -198 -185 -449 -909 -473 -1366 -5 -97 -14 -143 -28 -148 -9 -4 -12 7
-11 36 0 23 -3 45 -9 48 -5 4 -5 15 -1 25 4 11 7 84 6 164 -3 192 29 398 96
605 32 99 129 329 176 416 19 35 52 98 75 139 146 272 508 680 747 840 28 19
52 37 55 40 10 14 249 159 321 195 68 35 249 108 344 140 165 56 448 112 640
128 95 8 321 6 416 -3z m-2864 -112 c124 -115 148 -136 178 -159 17 -13 50
-42 75 -65 25 -23 56 -51 70 -62 l24 -19 -34 -37 c-19 -20 -42 -36 -52 -36 -9
0 -59 42 -110 93 -51 51 -107 98 -124 104 l-31 11 44 -132 c48 -145 57 -202
32 -218 -11 -8 -53 -2 -151 22 -170 40 -184 39 -131 -15 21 -22 63 -60 93 -85
29 -25 70 -59 89 -77 l36 -32 -40 -40 c-21 -23 -42 -41 -46 -41 -4 0 -23 15
-42 33 -19 17 -63 57 -98 87 -35 30 -89 78 -119 106 -30 28 -79 73 -107 99
-29 26 -53 52 -53 58 0 5 11 25 26 44 32 42 43 42 240 -2 188 -42 198 -43 188
-12 -4 12 -13 45 -21 72 -8 28 -23 82 -34 120 -10 39 -25 98 -31 133 -12 61
-11 63 12 87 14 13 30 24 37 24 7 1 43 -27 80 -61z m5490 -74 c37 -41 83 -100
102 -130 83 -133 31 -281 -110 -313 -87 -20 -156 18 -257 142 -12 15 -26 27
-30 27 -5 0 -35 -20 -67 -45 -49 -38 -60 -43 -74 -33 -22 18 -60 62 -61 70 0
13 405 358 421 358 4 0 38 -34 76 -76z m-6423 -89 c-4 -8 -11 -15 -16 -15 -6
0 -5 6 2 15 7 8 14 15 16 15 2 0 1 -7 -2 -15z m-74 -108 c-11 -18 -27 -42 -37
-53 -21 -23 -40 -52 -50 -74 -4 -8 -9 -17 -12 -20 -4 -3 -19 -25 -34 -48 -16
-24 -31 -41 -34 -38 -7 6 142 235 165 254 23 18 23 15 2 -21z m2950 -212 c193
-43 276 -68 458 -138 157 -60 210 -91 217 -124 3 -13 7 -34 10 -48 7 -32 25
-32 25 0 0 13 9 42 21 64 19 36 30 44 132 86 62 26 126 53 142 60 105 46 455
135 532 135 199 0 726 -388 843 -620 33 -64 69 -209 80 -320 12 -122 2 -429
-16 -480 -5 -13 -6 -13 -14 0 -4 8 -4 49 0 90 21 182 0 486 -42 590 l-10 24
-19 -24 c-12 -16 -19 -42 -19 -70 0 -69 -11 -120 -25 -120 -8 0 -16 -18 -20
-40 -4 -22 -12 -40 -18 -40 -7 -1 -22 -17 -34 -36 -18 -27 -23 -52 -25 -107
-2 -85 6 -114 33 -121 10 -4 28 -9 39 -12 15 -4 20 -1 20 13 0 15 2 16 10 3 5
-8 10 -29 10 -46 0 -23 5 -33 20 -37 11 -3 20 -11 20 -17 0 -7 -7 -10 -15 -6
-10 4 -19 -2 -24 -17 -10 -24 -99 -60 -306 -122 -60 -18 -157 -49 -213 -69
-57 -20 -116 -36 -131 -36 -23 0 -64 20 -81 39 -15 17 -219 167 -324 238 -66
46 -126 87 -133 93 -7 5 -14 10 -17 10 -3 0 -58 37 -122 81 -114 79 -200 129
-223 129 -6 0 -11 -7 -11 -15 0 -11 -5 -12 -25 -5 -20 7 -27 6 -31 -4 -7 -17
21 -46 78 -82 23 -15 49 -33 56 -41 7 -7 17 -13 22 -13 11 0 164 -93 208 -127
18 -14 31 -27 28 -30 -5 -5 -107 57 -240 144 -28 18 -52 30 -55 28 -6 -6 39
-55 51 -55 17 0 306 -204 463 -328 138 -108 158 -126 203 -172 37 -38 43 -49
38 -75 -7 -40 -41 -163 -47 -169 -6 -7 15 114 24 134 9 20 3 53 -11 58 -6 2
-14 -14 -17 -35 -12 -65 -36 -144 -66 -211 -24 -52 -32 -62 -43 -53 -11 9 -18
8 -30 -4 -9 -9 -22 -15 -28 -13 -15 5 -43 -28 -58 -66 -5 -15 -13 -25 -17 -23
-5 3 -18 1 -30 -4 -19 -7 -23 -16 -23 -48 0 -22 -5 -52 -11 -68 -6 -15 -13
-62 -15 -103 -5 -106 -12 -130 -54 -170 -37 -35 -37 -37 -34 -100 4 -62 3 -66
-24 -78 -16 -8 -76 -15 -147 -17 -66 -3 -113 -2 -103 1 26 8 30 34 9 60 -10
13 -17 32 -14 43 3 13 -4 21 -26 31 -30 12 -42 30 -21 30 25 0 6 32 -32 51
-28 14 -37 23 -28 29 7 4 9 13 6 19 -4 6 -11 9 -15 7 -8 -5 -71 60 -71 73 0 4
-13 18 -29 31 -23 20 -27 29 -19 44 8 14 5 30 -11 62 -20 39 -21 48 -10 85 12
39 11 42 -12 60 -22 17 -61 24 -115 20 -11 -1 -27 5 -34 13 -9 12 -31 16 -79
16 -71 0 -153 20 -159 38 -2 7 -23 12 -47 12 -24 0 -47 5 -50 10 -5 7 -11 8
-19 1 -6 -5 -30 -9 -53 -8 -34 1 -44 7 -64 35 -12 19 -33 73 -45 120 -12 48
-27 100 -33 115 -10 26 -8 31 32 72 55 56 377 312 491 390 48 33 117 82 154
108 62 45 64 48 32 42 -30 -7 -33 -6 -22 7 6 8 34 30 62 49 54 36 60 56 16 51
-15 -2 -33 1 -40 7 -18 15 -101 -28 -242 -124 -60 -41 -152 -104 -204 -140
-52 -35 -129 -92 -170 -125 -41 -34 -110 -88 -153 -122 -75 -57 -81 -60 -120
-54 -23 4 -80 20 -127 35 -47 16 -125 41 -175 55 -111 33 -166 56 -182 76 -7
10 -11 75 -11 198 0 178 -1 185 -25 220 -13 21 -32 64 -41 97 -10 33 -19 68
-22 78 -3 9 -9 15 -13 12 -5 -2 -11 46 -13 108 -4 98 -3 115 13 136 11 13 19
32 19 43 0 11 5 29 11 41 9 20 9 20 -4 5 -8 -10 -20 -18 -27 -18 -7 0 -10 -6
-7 -14 3 -8 -5 -19 -19 -26 -13 -8 -24 -19 -24 -27 0 -7 -7 -13 -15 -13 -14 0
-14 4 1 33 17 32 87 119 147 178 47 48 245 202 324 252 151 97 253 145 312
146 13 1 95 -15 181 -34z m285 2 c11 -3 34 -13 50 -22 l30 -17 -45 7 c-24 3
-49 10 -55 15 -5 4 -26 13 -45 19 l-35 11 40 -4 c22 -3 49 -7 60 -9z m-3416
-60 c-9 -7 -18 -19 -22 -27 -4 -12 -6 -12 -6 2 -1 19 28 52 38 43 3 -4 -1 -12
-10 -18z m554 -574 l23 -78 87 -5 c80 -5 108 -16 75 -31 -120 -54 -142 -68
-129 -83 5 -6 18 -38 29 -71 12 -33 24 -68 27 -77 11 -29 -7 -21 -70 32 -33
27 -67 50 -76 50 -8 0 -39 -20 -68 -45 -30 -25 -55 -44 -58 -42 -2 3 3 35 12
71 8 37 15 71 15 76 0 5 -29 30 -65 55 -36 26 -65 51 -65 56 0 5 21 9 48 9
103 0 114 6 145 74 15 33 27 67 27 74 0 6 4 12 10 12 5 0 20 -35 33 -77z
m1657 73 c0 -3 -4 -8 -10 -11 -5 -3 -10 -1 -10 4 0 6 5 11 10 11 6 0 10 -2 10
-4z m4935 -67 c11 -35 24 -70 28 -76 6 -9 36 -13 92 -13 46 0 86 -4 90 -9 3
-5 -30 -29 -73 -52 l-78 -42 33 -86 c18 -47 32 -92 33 -98 0 -21 -20 -15 -50
15 -15 15 -46 45 -68 66 l-41 39 -67 -62 c-37 -34 -69 -59 -72 -56 -2 2 8 43
24 89 27 83 27 86 9 106 -10 11 -42 32 -72 46 -30 15 -50 31 -46 35 4 4 44 9
88 11 l80 3 17 50 c9 28 19 63 23 78 9 43 28 27 50 -44z m-5105 -35 c13 -15 8
-59 -31 -264 -11 -57 -5 -472 7 -491 16 -26 -63 -51 -84 -26 -17 20 -35 311
-28 452 6 123 18 222 32 267 6 19 3 20 -32 14 -38 -6 -37 -5 19 23 51 26 74
35 98 40 4 0 12 -6 19 -15z m3713 -38 c192 -99 257 -150 312 -246 13 -22 -17
2 -88 73 -32 31 -61 57 -64 57 -3 0 -24 15 -47 34 -23 18 -52 37 -66 41 -14 4
-29 11 -35 15 -5 4 -23 10 -39 14 -27 7 -28 6 -23 -22 21 -104 29 -268 24
-472 -3 -124 -9 -233 -12 -243 -10 -26 -61 -22 -78 6 -11 17 -12 40 -6 102 14
146 10 363 -11 520 -11 83 -20 156 -20 163 0 25 52 11 153 -42z m-3908 -35
c-11 -5 -57 -34 -103 -65 -86 -59 -109 -63 -44 -9 47 41 121 81 147 82 20 0
20 0 0 -8z m225 -331 c-1 -143 -5 -262 -10 -265 -20 -12 -31 187 -21 361 7
127 13 164 27 164 2 0 4 -117 4 -260z m1634 22 c-29 -27 -96 -64 -103 -57 -3
4 2 11 11 16 9 5 23 15 30 22 22 19 52 36 67 36 11 1 9 -4 -5 -17z m516 -175
c0 -10 -89 40 -115 65 -11 11 10 2 47 -19 37 -21 68 -42 68 -46z m-810 -16 c0
-5 -9 -11 -21 -14 -16 -4 -18 -3 -8 9 13 16 29 19 29 5z m-2950 -228 c-1 -147
-27 -353 -54 -427 -14 -38 -30 -74 -35 -80 -5 -6 -33 -58 -62 -116 -49 -98
-64 -119 -80 -120 -24 0 -80 181 -58 188 13 5 11 29 -3 52 -9 14 -10 23 -3 28
6 4 10 32 10 62 1 68 36 183 84 275 36 70 164 215 189 215 8 0 12 -22 12 -77z
m6816 -5 c146 -157 223 -424 180 -626 -14 -67 -32 -102 -53 -102 -11 0 -132
202 -161 269 -45 103 -84 400 -67 501 8 50 19 46 101 -42z m-5064 -102 c68
-19 164 -46 213 -60 50 -14 140 -40 200 -57 174 -49 203 -59 213 -72 6 -7 24
-68 42 -137 18 -69 50 -186 71 -260 22 -74 53 -182 70 -240 17 -58 43 -143 59
-190 21 -62 29 -104 29 -154 0 -38 -4 -65 -8 -60 -20 22 -111 211 -111 230 0
27 -32 113 -46 125 -8 6 -14 20 -14 30 0 12 -11 23 -27 29 -16 6 -40 17 -55
25 -15 9 -30 16 -33 15 -3 0 -9 0 -14 0 -4 0 -14 20 -21 45 -9 33 -18 45 -31
45 -11 0 -19 6 -19 12 0 13 -77 88 -90 88 -4 0 -13 7 -20 15 -7 8 -20 15 -30
15 -10 0 -23 7 -30 15 -7 8 -22 15 -34 15 -26 0 -56 32 -57 63 -1 17 -2 18 -6
5 -5 -22 -23 -24 -23 -3 0 8 -4 15 -10 15 -5 0 -10 -8 -10 -17 0 -25 -22 19
-39 77 -7 25 -22 53 -32 63 -10 10 -19 26 -19 37 0 44 -49 22 -50 -22 0 -25
-20 -23 -20 2 0 11 5 20 10 20 17 0 11 21 -15 52 -14 16 -25 36 -25 44 0 8 -7
14 -15 14 -8 0 -15 4 -15 9 0 5 -9 11 -20 14 -14 4 -20 14 -20 34 -1 38 -26
66 -83 91 -49 22 -55 30 -35 50 18 18 35 15 170 -22z m3384 12 c11 -13 26 -32
34 -42 14 -18 13 -19 -13 -12 -19 4 -26 3 -22 -4 3 -5 2 -10 -2 -10 -5 0 -8
-17 -6 -37 2 -33 1 -35 -6 -13 l-9 25 -7 -22 c-4 -13 -12 -23 -17 -23 -5 0 -7
-3 -4 -8 7 -12 -9 -77 -18 -74 -5 2 -12 0 -15 -5 -17 -25 -69 -52 -90 -46 -17
4 -29 -1 -47 -22 -13 -16 -24 -25 -24 -20 0 4 -6 3 -12 -3 -7 -6 -29 -13 -49
-17 -21 -4 -53 -23 -79 -46 -23 -21 -46 -37 -50 -34 -4 3 -13 -2 -20 -10 -7
-8 -21 -15 -31 -15 -10 0 -21 -4 -24 -10 -10 -16 -22 -12 -28 9 -5 22 -39 19
-69 -6 -10 -9 -25 -12 -37 -8 -14 4 -27 -1 -42 -19 -13 -15 -26 -26 -31 -26
-18 0 -48 -36 -48 -57 0 -13 -3 -23 -7 -23 -10 0 -43 -58 -43 -74 0 -7 -11
-35 -25 -63 -25 -54 -48 -118 -86 -243 -17 -60 -22 -96 -20 -179 2 -115 -11
-171 -38 -171 -17 0 -41 37 -41 64 0 8 -10 20 -22 28 l-22 15 18 79 c10 43 38
142 62 219 24 77 52 174 63 215 11 41 36 134 55 205 20 72 43 162 52 200 9 39
21 75 28 82 11 11 122 47 321 103 55 16 168 49 250 73 177 52 195 54 221 25z
m2145 -597 c-25 -171 -95 -313 -208 -421 -94 -91 -139 -147 -148 -183 -13 -49
-21 -28 -15 37 3 36 3 63 1 60 -2 -2 -15 13 -29 34 -14 20 -49 62 -79 92 -78
77 -110 120 -138 183 -39 89 -77 267 -57 267 18 0 157 -117 192 -161 20 -24
44 -62 53 -84 20 -46 67 -228 67 -258 0 -39 19 -4 71 133 63 165 76 191 130
259 52 65 150 144 162 132 6 -6 5 -42 -2 -90z m-7763 34 c33 -30 78 -79 101
-109 39 -51 128 -235 153 -318 13 -43 23 -48 31 -15 31 134 63 239 83 273 42
72 212 219 231 200 13 -13 -37 -179 -82 -271 -34 -71 -61 -109 -129 -180 -63
-66 -90 -101 -98 -132 -11 -38 -14 -41 -32 -31 -31 17 -194 187 -224 233 -69
107 -108 215 -118 324 -8 101 0 104 84 26z m1420 -109 l63 -61 14 -150 c7 -82
19 -171 26 -197 13 -47 8 -71 -11 -52 -10 10 -28 96 -53 245 -13 82 -28 109
-115 212 -63 75 -87 119 -78 143 7 17 13 13 49 -30 23 -28 70 -77 105 -110z
m5316 -171 c-4 -8 -10 -15 -15 -15 -5 0 -9 7 -9 15 0 8 7 15 15 15 9 0 12 -6
9 -15z m-6119 -207 c-12 -123 -40 -188 -83 -188 -19 0 -33 -19 -31 -43 0 -7 4
-3 9 8 7 16 9 17 9 3 1 -9 4 -23 7 -31 3 -9 -2 -18 -14 -21 -14 -5 -17 -13
-14 -37 3 -20 0 -34 -9 -40 -8 -4 -14 -14 -14 -22 0 -14 -66 -116 -76 -117 -3
0 0 29 6 64 7 36 9 70 4 78 -5 7 -9 22 -9 33 0 12 3 16 8 8 4 -6 8 17 9 50 1
68 40 168 90 234 24 31 97 93 110 93 2 0 1 -33 -2 -72z m6481 50 c16 -13 38
-34 49 -47 10 -14 30 -36 42 -49 16 -17 21 -32 18 -46 -4 -14 -3 -17 3 -8 7
10 12 8 24 -10 8 -13 19 -34 23 -48 7 -22 6 -23 -8 -12 -13 11 -15 10 -10 -7
3 -12 9 -19 13 -16 4 3 11 -10 15 -28 9 -41 16 -207 10 -226 -8 -21 -34 18
-35 51 0 15 -4 29 -9 32 -4 3 -6 -7 -4 -22 l5 -27 -18 25 c-10 14 -24 29 -31
33 -7 4 -13 15 -13 22 0 8 -7 15 -15 15 -18 0 -20 17 -3 22 8 3 4 12 -9 25
-20 20 -20 23 -6 35 9 7 19 12 22 10 3 -2 7 2 9 10 2 9 0 8 -7 -2 -8 -12 -11
-12 -11 -1 0 9 -8 12 -23 9 -19 -4 -23 -1 -20 16 3 12 -3 35 -11 51 -9 17 -16
26 -16 20 -1 -5 -7 5 -15 24 -16 36 -21 171 -6 171 4 0 21 -10 37 -22z m-390
-40 c-4 -29 -13 -62 -21 -74 -7 -12 -15 -36 -18 -55 -2 -21 -4 -11 -5 26 -1
39 4 67 13 79 8 11 15 29 15 41 0 20 8 35 18 35 2 0 1 -24 -2 -52z m-6722
-105 c111 -57 181 -122 262 -243 27 -40 59 -87 71 -104 12 -17 24 -43 28 -58
4 -16 11 -28 16 -28 6 0 7 -4 4 -10 -28 -46 -232 62 -334 177 -69 76 -161 242
-161 288 0 16 65 3 114 -22z m7826 34 c0 -2 -24 -48 -53 -103 -29 -54 -59
-112 -67 -128 -25 -49 -110 -129 -205 -193 -85 -57 -147 -93 -160 -93 -11 0
-4 41 15 93 17 46 39 81 115 182 77 104 136 156 227 202 64 32 128 52 128 40z
m-1120 -127 l-11 -25 6 25 c2 14 5 34 6 45 2 19 2 19 6 0 2 -12 -1 -32 -7 -45z
m-2810 10 c235 -1 339 -5 327 -11 -49 -28 -711 -19 -740 10 -6 6 4 8 29 6 22
-2 194 -4 384 -5z m2757 -22 c-3 -8 -6 -5 -6 6 -1 11 2 17 5 13 3 -3 4 -12 1
-19z m-3097 -98 c164 -15 486 -12 678 6 l175 17 18 -24 c10 -13 19 -29 19 -35
0 -15 -335 -46 -561 -52 -153 -4 -217 0 -365 18 -201 25 -224 31 -224 59 0 34
2 34 260 11z m2561 6 c12 7 2 -36 -24 -101 -11 -27 -32 -84 -47 -125 -34 -92
-91 -202 -107 -208 -14 -4 -19 44 -5 50 16 7 161 352 163 388 0 10 2 11 6 2 2
-6 9 -9 14 -6z m972 -206 c33 -71 41 -100 28 -100 -6 0 -11 -20 -11 -46 0 -38
-3 -45 -16 -40 -8 3 -13 2 -10 -3 9 -13 -13 -164 -23 -171 -6 -3 -6 -21 -1
-45 l9 -39 -24 28 c-18 21 -22 33 -16 49 10 28 -6 77 -23 71 -21 -8 -51 133
-41 193 4 26 7 55 7 63 -1 21 19 154 25 162 7 13 69 -66 96 -122z m-6365 85
c15 -32 15 -55 1 -55 -6 0 -8 10 -5 23 3 12 3 16 0 10 -3 -7 -13 -13 -22 -13
-12 0 -13 3 -4 12 7 7 12 17 12 23 0 5 -7 1 -15 -9 -20 -27 -28 -15 -9 12 20
28 28 28 42 -3z m-54 -31 c21 -8 20 -33 -3 -121 -10 -40 -15 -73 -10 -75 5 -2
10 -27 10 -55 1 -29 5 -50 9 -48 9 6 24 -45 15 -53 -3 -3 -5 2 -5 11 0 10 -4
17 -10 17 -5 0 -10 -9 -10 -20 0 -12 -7 -20 -16 -20 -16 0 -16 27 2 125 6 29
5 29 -10 10 -8 -11 -16 -30 -16 -42 0 -33 -17 -37 -23 -5 -3 17 0 30 9 35 8 4
14 23 14 42 0 21 5 35 12 35 7 0 5 5 -5 13 -23 18 -31 61 -14 79 8 8 18 29 22
46 7 35 7 35 29 26z m4990 -19 c3 -8 10 -15 16 -15 5 0 10 7 10 15 0 19 19 19
45 -1 20 -15 30 -54 14 -54 -5 0 -9 -12 -9 -26 0 -29 -49 -157 -62 -162 -4 -2
-8 -9 -8 -16 0 -26 -164 -98 -295 -131 -27 -7 -101 -27 -163 -44 -110 -30
-182 -39 -182 -23 0 5 25 14 55 20 30 7 80 17 110 23 60 13 125 59 125 89 0
10 3 20 8 22 15 6 42 67 36 81 -3 10 4 22 20 32 14 10 26 26 26 37 0 21 66 87
88 88 7 0 15 6 18 14 3 8 20 17 37 20 18 4 43 15 57 26 30 24 46 25 54 5z
m-3984 -37 c0 -5 -4 -8 -10 -8 -5 0 -10 10 -10 23 0 18 2 19 10 7 5 -8 10 -18
10 -22z m-953 -50 c-3 -8 -6 -5 -6 6 -1 11 2 17 5 13 3 -3 4 -12 1 -19z m1003
-80 c0 -5 12 -27 27 -51 25 -40 27 -47 23 -142 -2 -55 -4 -129 -3 -165 l1 -65
-16 30 c-14 24 -16 56 -15 162 2 123 0 139 -28 220 -16 48 -29 89 -29 92 1 9
40 -71 40 -81z m-1012 1 c-1 -20 2 -41 6 -47 4 -7 1 -12 -6 -12 -8 0 -19 18
-25 40 -5 22 -6 40 -2 40 5 0 9 10 9 23 0 18 2 19 10 7 5 -8 9 -31 8 -51z
m1372 31 c0 -4 8 -10 18 -14 9 -3 31 -14 47 -25 17 -11 38 -20 48 -20 9 -1 17
-8 17 -16 0 -8 7 -15 15 -15 17 0 38 -16 107 -81 52 -49 158 -98 260 -121 52
-11 87 -28 57 -28 -99 2 -365 76 -534 150 -22 9 -57 23 -78 31 -49 17 -72 41
-36 38 51 -5 57 0 64 43 5 28 4 43 -4 46 -6 2 -11 10 -11 18 0 8 6 11 15 8 8
-4 15 -10 15 -14z m-2684 -68 c-4 -3 -12 0 -19 7 -9 9 -9 14 3 21 11 7 16 5
18 -6 2 -9 1 -18 -2 -22z m739 -33 c28 -6 84 -27 125 -47 63 -29 94 -54 197
-157 108 -107 154 -168 139 -182 -6 -6 -124 113 -185 186 -43 51 -130 111
-163 111 -9 0 -18 4 -20 9 -1 5 -28 12 -58 15 -30 3 -50 2 -45 -2 12 -8 17
-62 6 -62 -12 0 -52 46 -45 52 3 4 -4 11 -15 18 -12 6 -21 16 -21 22 0 7 -9
22 -21 34 l-21 22 39 -4 c21 -3 61 -10 88 -15z m7520 -19 c-14 -22 -25 -46
-25 -55 0 -8 -3 -14 -7 -14 -30 5 -63 -3 -63 -15 0 -13 -34 -30 -54 -27 -5 1
-16 -5 -26 -14 -14 -12 -20 -13 -26 -4 -4 8 -3 10 4 5 7 -4 12 -1 12 8 0 8 3
21 6 30 10 26 -34 19 -85 -14 -51 -32 -111 -90 -94 -90 6 0 10 -8 8 -17 -2
-10 -4 -22 -5 -28 -1 -5 -6 1 -10 15 -7 22 -8 21 -9 -12 -1 -20 6 -43 14 -52
17 -16 20 -30 6 -21 -5 3 -12 1 -16 -5 -4 -6 -12 -7 -18 -3 -7 4 -16 8 -22 9
-5 0 -15 2 -22 2 -7 1 -2 13 12 28 14 15 25 32 25 38 0 6 -30 -20 -66 -59 -40
-42 -68 -65 -71 -57 -16 42 199 265 309 320 49 25 184 65 241 71 4 1 -4 -17
-18 -39z m-6928 -36 c-6 -7 -37 7 -37 16 0 15 35 16 38 2 2 -7 2 -16 -1 -18z
m176 -30 c3 -16 0 -28 -10 -31 -20 -8 -26 2 -19 32 8 32 22 32 29 -1z m5937
-31 c0 -7 -7 -13 -15 -13 -8 0 -22 -18 -31 -40 -24 -60 -27 -43 -7 39 17 72
17 72 35 49 10 -13 18 -29 18 -35z m257 25 c-3 -8 -6 -5 -6 6 -1 11 2 17 5 13
3 -3 4 -12 1 -19z m-6481 -47 c-11 -13 -16 -27 -12 -38 6 -15 8 -15 16 -3 6 8
10 23 10 33 0 19 11 22 27 6 13 -13 0 -78 -17 -89 -7 -5 -10 -26 -8 -59 3 -28
1 -51 -4 -51 -4 0 -8 3 -9 8 -2 18 -8 40 -23 74 -9 20 -14 49 -11 65 2 15 7
46 10 67 6 36 8 38 23 23 14 -15 14 -18 -2 -36z m6974 25 c0 -3 -4 -8 -10 -11
-5 -3 -10 -1 -10 4 0 6 5 11 10 11 6 0 10 -2 10 -4z m-487 -68 c-4 -19 -10
-24 -24 -21 -15 4 -18 11 -13 27 4 11 11 23 15 24 5 2 9 11 10 20 0 13 2 12 9
-4 4 -11 6 -32 3 -46z m-6939 43 c3 -5 -1 -11 -9 -14 -9 -4 -12 -1 -8 9 6 16
10 17 17 5z m5556 4 c0 -6 -149 -78 -210 -102 -114 -45 -461 -143 -504 -143
-19 0 -21 23 -3 38 6 5 46 15 87 22 173 28 417 98 551 158 37 16 63 27 77 31
1 1 2 -1 2 -4z m1707 -11 c-3 -3 -12 -4 -19 -1 -8 3 -5 6 6 6 11 1 17 -2 13
-5z m-6887 -85 c0 -6 -4 -7 -10 -4 -5 3 -10 11 -10 16 0 6 5 7 10 4 6 -3 10
-11 10 -16z m2155 11 c3 -5 2 -10 -4 -10 -5 0 -13 5 -16 10 -3 6 -2 10 4 10 5
0 13 -4 16 -10z m2964 -26 c-19 -14 -33 -30 -31 -35 1 -5 -32 -44 -73 -86 -41
-43 -75 -81 -75 -86 0 -5 -16 -25 -35 -44 -19 -19 -35 -39 -35 -44 0 -5 -6 -9
-13 -9 -8 0 -19 -11 -25 -25 -6 -14 -16 -25 -22 -25 -5 0 -10 -5 -10 -12 0
-16 -41 -58 -56 -58 -7 0 -22 -13 -34 -30 -12 -16 -27 -30 -33 -30 -7 0 -23
-9 -36 -19 -14 -10 -31 -17 -38 -14 -7 3 -13 0 -13 -6 0 -6 -24 -22 -53 -36
-30 -14 -62 -34 -71 -44 -10 -11 -41 -25 -69 -31 -28 -6 -59 -18 -69 -27 -10
-8 -26 -13 -38 -10 -12 3 -25 -1 -33 -12 -14 -20 -78 -52 -89 -45 -4 3 -8 1
-8 -5 0 -5 -29 -35 -64 -66 -54 -47 -68 -55 -90 -49 -14 3 -26 10 -26 14 0 5
29 29 64 54 35 25 83 63 107 85 24 22 47 41 52 41 4 0 7 8 7 18 0 11 10 27 21
38 12 10 41 48 64 84 23 36 62 90 86 120 25 30 52 66 62 80 9 13 17 20 17 15
0 -6 11 7 24 27 12 21 25 35 28 32 3 -3 9 -1 13 5 3 6 -1 11 -11 11 -10 0 -14
3 -10 8 4 4 11 7 16 7 4 0 16 10 26 23 14 17 59 35 164 66 80 24 174 55 210
69 75 29 211 76 224 77 6 0 -6 -12 -25 -26z m-3321 -14 c42 -10 133 -31 202
-45 69 -15 135 -33 148 -41 27 -17 30 -48 5 -40 -10 2 -56 14 -103 26 -182 45
-360 108 -360 126 0 3 7 3 16 0 8 -3 50 -15 92 -26z m4751 -38 c1 -15 -4 -22
-11 -20 -17 6 -22 33 -12 66 l7 27 7 -25 c5 -14 8 -35 9 -48z m-6629 -13 c0
-9 11 -21 25 -27 33 -15 32 -31 -2 -27 -36 4 -95 75 -62 75 5 0 7 -4 4 -10 -3
-5 -1 -10 5 -10 8 0 10 9 5 28 -6 26 -6 26 9 7 8 -11 16 -27 16 -36z m1743 18
c56 -19 129 -42 162 -51 123 -36 251 -77 260 -84 15 -11 75 -90 75 -99 0 -4
18 -28 40 -52 22 -24 75 -100 117 -169 95 -154 224 -293 291 -313 46 -13 53
-24 21 -32 -24 -7 -109 34 -125 60 -6 10 -32 28 -57 41 -26 13 -49 27 -52 33
-4 5 -19 9 -34 9 -15 0 -46 9 -69 20 -22 11 -50 20 -62 20 -32 0 -107 39 -125
66 -8 13 -22 24 -30 24 -8 0 -15 5 -15 10 0 6 -5 10 -11 10 -6 0 -25 11 -42
24 -18 13 -46 29 -64 37 -17 7 -37 24 -42 37 -6 13 -16 20 -21 17 -12 -8 -121
99 -143 140 -9 17 -26 41 -39 55 -26 28 -46 58 -84 126 -14 25 -40 59 -57 75
-43 39 -23 38 106 -4z m2668 -70 c-10 -9 -11 -8 -5 6 3 10 9 15 12 12 3 -3 0
-11 -7 -18z m2193 -42 c-4 -8 -11 -15 -16 -15 -6 0 -5 6 2 15 7 8 14 15 16 15
2 0 1 -7 -2 -15z m-2245 -61 c-11 -22 -27 -46 -35 -55 -8 -8 -14 -20 -14 -25
0 -15 -49 -70 -50 -55 0 23 108 187 117 177 2 -2 -6 -21 -18 -42z m3367 -12
c-11 -11 -16 -12 -16 -4 0 7 5 12 10 12 6 0 11 12 11 28 2 25 2 25 6 3 3 -13
-2 -30 -11 -39z m-7003 -37 c20 -35 37 -72 36 -82 0 -10 -6 -2 -13 17 -6 19
-17 34 -24 33 -6 -2 -9 4 -6 12 4 8 2 15 -2 15 -19 1 -43 27 -49 53 -12 47 18
22 58 -48z m5381 27 c-31 -46 -44 -73 -44 -96 -1 -11 -7 -32 -15 -46 -8 -14
-15 -38 -16 -55 l-1 -30 -7 30 c-6 28 -7 29 -19 10 -11 -19 -11 -18 -12 7 0
30 70 170 103 206 27 29 35 10 11 -26z m-3664 8 c0 -5 -2 -10 -4 -10 -3 0 -8
5 -11 10 -3 6 -1 10 4 10 6 0 11 -4 11 -10z m4130 6 c0 -2 -7 -9 -15 -16 -13
-11 -14 -10 -9 4 5 14 24 23 24 12z m-431 -86 l-1 -55 -12 60 c-12 61 -10 88
5 64 5 -8 8 -39 8 -69z m-3669 48 c0 -7 14 -33 30 -57 17 -24 30 -48 30 -53 0
-13 -20 -9 -20 5 0 6 -14 30 -30 51 -30 40 -38 66 -20 66 6 0 10 -6 10 -12z
m5501 -99 c-5 -13 -10 -19 -10 -12 -1 15 10 45 15 40 3 -2 0 -15 -5 -28z
m-354 -11 c-3 -8 -6 -5 -6 6 -1 11 2 17 5 13 3 -3 4 -12 1 -19z m-7513 1 c80
-14 180 -57 290 -124 83 -50 152 -105 132 -105 -11 0 -76 35 -146 79 -36 22
-83 50 -104 62 -102 55 -308 87 -382 59 -19 -7 -24 -6 -24 5 0 8 -8 16 -17 16
-10 1 -2 5 17 9 54 11 170 11 234 -1z m6811 2 c20 -8 19 -8 -2 -15 -12 -4 -55
-6 -95 -5 -130 3 -271 -40 -400 -124 -46 -30 -92 -57 -103 -62 -18 -8 -17 -9
8 -13 16 -2 35 2 43 9 8 6 18 9 22 5 12 -13 -31 -36 -63 -34 -22 1 -51 -12
-108 -50 -81 -55 -103 -56 -39 -2 20 18 62 56 92 85 84 79 306 189 420 208 44
7 204 6 225 -2z m-6505 -11 c0 -5 -2 -10 -4 -10 -3 0 -8 5 -11 10 -3 6 -1 10
4 10 6 0 11 -4 11 -10z m44 -49 c-8 -47 -24 -55 -24 -11 0 17 5 30 10 30 6 0
10 8 10 17 0 9 2 14 5 11 3 -3 3 -24 -1 -47z m2116 -3 c0 -5 -7 -3 -15 6 -8 8
-15 18 -15 22 0 3 7 1 15 -6 8 -7 15 -17 15 -22z m5374 -35 c-9 -32 -23 -72
-30 -90 -8 -17 -14 -36 -14 -41 0 -12 -80 -223 -115 -302 -13 -30 -29 -73 -36
-95 -11 -39 -192 -398 -252 -500 -47 -81 -210 -325 -214 -321 -2 2 32 63 77
135 44 72 80 133 80 136 0 3 12 24 27 48 61 96 243 441 243 461 0 3 14 36 31
72 31 69 35 79 87 228 18 49 36 94 42 101 6 7 22 50 36 96 14 46 30 97 36 112
19 48 20 21 2 -40z m-3733 34 c-10 -9 -11 -8 -5 6 3 10 9 15 12 12 3 -3 0 -11
-7 -18z m-4271 3 c0 -5 -6 -10 -14 -10 -8 0 -18 5 -21 10 -3 6 3 10 14 10 12
0 21 -4 21 -10z m7713 -3 c-2 -4 -6 -7 -9 -6 -3 0 -12 -8 -20 -18 -12 -17 -13
-16 -14 9 0 23 4 27 23 24 12 -1 21 -6 20 -9z m-8533 -60 c0 -5 -4 -5 -10 -2
-5 3 -10 14 -10 23 0 15 2 15 10 2 5 -8 10 -19 10 -23z m3502 2 c28 -28 29
-29 23 -7 -6 22 -6 22 9 4 9 -11 16 -15 16 -9 0 7 66 9 213 6 287 -6 335 -8
343 -16 4 -4 17 -7 29 -7 11 0 25 -4 31 -9 21 -21 392 -48 439 -33 17 6 55 14
85 17 30 4 60 11 65 15 13 9 201 29 242 25 25 -2 33 2 38 19 7 20 7 20 12 2 3
-11 -1 -24 -8 -30 -8 -6 -23 -29 -34 -50 -26 -51 -167 -194 -200 -202 -13 -3
-23 -10 -20 -14 3 -5 -4 -6 -15 -3 -11 3 -20 0 -20 -6 0 -6 -15 -11 -33 -11
-19 0 -60 -8 -93 -18 -32 -11 -82 -24 -109 -31 -71 -17 -414 -19 -495 -3 -36
7 -74 14 -85 15 -40 7 -217 68 -243 85 -33 21 -83 76 -143 156 -87 117 -112
174 -47 105z m5038 21 c0 -5 -4 -10 -10 -10 -5 0 -10 5 -10 10 0 6 5 10 10 10
6 0 10 -4 10 -10z m-1190 -79 c0 -16 -4 -17 -35 -7 -27 8 -31 12 -17 18 32 13
52 9 52 -11z m-5427 -41 c15 -16 25 -30 21 -30 -14 0 -45 22 -54 40 -16 30 3
24 33 -10z m4728 8 c-7 -21 -57 -55 -66 -46 -2 2 7 18 21 36 30 38 58 44 45
10z m-5138 -103 c15 -14 27 -28 27 -31 0 -14 -75 38 -100 70 -15 19 -14 19 15
3 17 -9 42 -27 58 -42z m-1665 -110 c-3 -3 -9 2 -12 12 -6 14 -5 15 5 6 7 -7
10 -15 7 -18z m7731 -151 c-1 -33 1 -66 5 -72 10 -17 -18 -25 -59 -18 -41 8
-44 21 -12 46 15 12 28 39 37 75 17 70 31 54 29 -31z m-7644 -50 c8 -20 15
-39 15 -43 -1 -8 -39 61 -40 72 -1 18 11 4 25 -29z m4390 25 c166 -2 174 -2
100 -11 -92 -11 -423 -2 -475 12 -25 7 -4 8 80 5 63 -3 196 -6 295 -6z m-3270
-38 c8 -14 -35 -25 -47 -13 -6 6 -8 18 -4 27 4 12 10 14 25 5 11 -5 22 -14 26
-19z m1001 5 c70 -26 102 -46 71 -46 -10 0 -32 7 -49 16 -17 9 -68 19 -112 22
-45 3 -75 7 -68 9 6 3 10 9 6 14 -11 18 87 8 152 -15z m4650 17 c-19 -3 -25
-7 -17 -12 7 -5 -32 -11 -86 -14 -54 -3 -115 -12 -135 -21 -21 -9 -45 -16 -55
-16 -16 0 -16 1 -1 16 27 27 145 53 238 52 47 -1 72 -3 56 -5z m-5774 -28 c-5
-28 -23 -33 -41 -11 -9 11 -9 16 0 21 6 4 15 2 19 -5 5 -8 9 -7 13 4 10 24 15
19 9 -9z m5967 -27 c-5 -10 -19 -23 -32 -29 -12 -7 -30 -21 -39 -32 -25 -28
-22 -11 4 26 39 58 61 78 69 65 4 -6 3 -20 -2 -30z m776 32 c-3 -5 -20 -10
-36 -10 -18 0 -28 4 -24 10 3 6 20 10 36 10 18 0 28 -4 24 -10z m-5896 -140
c149 -167 426 -432 521 -500 30 -21 100 -69 155 -107 55 -37 102 -71 103 -75
2 -5 7 -8 11 -8 4 0 79 -39 167 -86 217 -118 274 -143 482 -213 251 -84 426
-125 677 -158 165 -21 609 -24 765 -4 392 50 796 181 1150 375 119 65 360 218
390 247 8 8 43 36 76 61 91 70 329 284 412 372 39 42 72 72 72 67 0 -24 -195
-226 -310 -321 -41 -34 -95 -81 -121 -105 -43 -41 -218 -171 -306 -228 -205
-131 -307 -184 -553 -284 -294 -119 -464 -164 -808 -213 -162 -23 -375 -26
-610 -10 -214 15 -343 36 -562 90 -183 46 -278 80 -485 175 -33 15 -82 36
-110 47 -163 65 -473 260 -700 443 -95 76 -338 315 -428 419 -104 121 -117
138 -117 149 0 7 12 -1 26 -18 15 -16 61 -68 103 -115z m-1788 32 c31 -70 22
-73 -11 -5 -17 35 -30 66 -30 70 0 13 20 -19 41 -65z m6343 23 c-31 -24 -39
-17 -13 11 13 14 25 20 27 14 2 -6 -4 -18 -14 -25z m246 15 c0 -5 -5 -10 -11
-10 -5 0 -7 5 -4 10 3 6 8 10 11 10 2 0 4 -4 4 -10z m-3093 -6 c-3 -3 -12 -4
-19 -1 -8 3 -5 6 6 6 11 1 17 -2 13 -5z m3313 -48 c0 -2 -8 -10 -17 -17 -16
-13 -17 -12 -4 4 13 16 21 21 21 13z m-2995 -27 c11 -17 2 -18 -30 -4 l-30 13
27 1 c15 1 30 -4 33 -10z m104 -18 c10 -7 7 -9 -12 -8 -14 1 -23 5 -20 10 6 9
15 9 32 -2z m-3865 -53 c9 -17 14 -33 12 -36 -4 -4 -36 51 -36 63 0 13 10 3
24 -27z m67 -113 c12 -22 45 -80 72 -130 27 -49 58 -102 68 -116 10 -15 19
-30 19 -33 0 -11 116 -174 258 -364 243 -324 535 -623 844 -865 36 -28 69 -58
72 -65 8 -18 -4 -10 -124 84 -133 104 -388 341 -505 470 -49 54 -92 101 -96
104 -3 3 -35 43 -73 90 -37 47 -73 92 -79 100 -7 8 -23 31 -37 50 -14 19 -34
45 -44 58 -43 49 -172 241 -247 366 -27 44 -53 86 -58 92 -19 23 -123 229
-108 214 8 -8 25 -33 38 -55z m2372 40 c28 -12 20 -28 -10 -20 -16 4 -80 9
-143 11 -135 4 -132 4 -100 15 28 9 225 5 253 -6z m3857 -1 c8 -8 -16 -11 -77
-12 -48 0 -124 -3 -168 -6 l-80 -5 25 20 c23 20 35 21 157 17 74 -2 137 -8
143 -14z m840 -57 c24 -12 49 -32 57 -44 14 -20 10 -20 -44 8 -50 26 -65 29
-108 23 -72 -10 -140 -57 -207 -145 -19 -26 -40 -53 -47 -60 -6 -8 -17 -22
-24 -31 -10 -14 -14 -15 -25 -3 -10 12 6 34 100 129 63 63 129 122 148 130 50
22 100 19 150 -7z m-5568 -44 c15 -15 28 -31 28 -37 0 -5 -13 3 -29 18 l-29
28 -21 -21 c-12 -12 -21 -25 -21 -31 0 -5 -5 -10 -12 -10 -6 0 -54 -44 -107
-98 -53 -54 -114 -111 -136 -127 -22 -16 -51 -40 -64 -52 -13 -13 -31 -23 -40
-23 -17 0 3 20 238 240 128 120 151 140 160 140 3 0 18 -12 33 -27z m4228 5
c-33 -27 -276 -146 -315 -153 -30 -6 -16 1 165 88 41 20 95 48 120 62 54 30
63 31 30 3z m1325 -38 c3 -5 12 -7 20 -4 10 4 12 0 8 -15 -4 -17 -2 -20 11
-15 11 4 16 1 16 -10 0 -9 5 -16 11 -16 5 0 8 -4 5 -9 -11 -17 -47 1 -62 30
-8 16 -19 29 -24 29 -6 0 -10 5 -10 10 0 13 17 13 25 0z m72 -42 c-3 -8 -6 -5
-6 6 -1 11 2 17 5 13 3 -3 4 -12 1 -19z m-23 -70 c-4 -13 -7 -33 -6 -46 1 -13
-2 -20 -8 -17 -6 3 -10 0 -10 -9 0 -19 -73 -111 -106 -132 -25 -17 -26 -16
-48 9 -13 15 -33 27 -46 27 -20 0 -21 -2 -9 -16 12 -15 11 -16 -9 -10 -23 8
-23 7 -5 -13 9 -12 22 -21 28 -21 5 0 16 -13 23 -30 8 -16 20 -30 27 -30 7 0
15 -7 19 -15 9 -25 -11 -17 -38 16 -14 17 -26 28 -26 24 0 -3 -19 15 -41 42
-23 26 -47 51 -54 55 -7 5 -11 17 -8 28 3 11 9 17 14 14 5 -3 7 -9 5 -13 -3
-4 14 -8 37 -10 l41 -2 -24 28 c-14 15 -32 33 -40 39 -8 7 -12 15 -9 18 3 3
14 -2 25 -12 47 -42 113 -92 122 -92 22 0 121 121 128 155 3 19 11 35 16 35 5
0 6 -10 2 -22z m-2313 -18 c-54 -25 -63 -25 -31 0 14 11 36 20 50 20 20 0 17
-4 -19 -20z m574 -3 c-23 -16 -55 -28 -55 -22 0 6 53 34 65 35 5 0 1 -6 -10
-13z m-4045 -39 c0 -6 -10 -22 -21 -34 -17 -18 -26 -21 -40 -13 -18 9 -18 11
8 34 30 26 53 32 53 13z m-70 -59 c0 -14 -114 -129 -128 -129 -21 0 -13 14 46
77 54 59 82 77 82 52z m3711 -49 c10 -6 19 -18 18 -28 0 -10 -3 -12 -6 -4 -2
6 -13 12 -24 12 -10 0 -19 4 -19 9 0 5 -10 12 -22 14 -19 4 -18 4 5 6 16 0 37
-4 48 -9z m-3104 -56 c24 -20 42 -38 39 -41 -6 -6 -66 29 -66 39 0 17 -52 6
-127 -26 -70 -31 -167 -63 -245 -82 -24 -5 -28 -3 -28 15 0 15 6 21 23 21 21
0 197 52 302 90 28 10 52 18 54 19 2 1 24 -15 48 -35z m1583 -54 c-30 -27 -66
-54 -80 -61 -14 -6 -33 -15 -42 -20 -13 -7 -18 -5 -18 4 0 8 8 21 18 30 16 15
162 96 172 97 3 0 -20 -23 -50 -50z m3165 28 c44 -20 27 -28 -57 -28 -94 0
-98 -3 -246 -117 -77 -60 -121 -83 -92 -48 22 26 203 159 249 182 49 25 106
29 146 11z m500 -68 c12 -19 -12 -10 -31 11 -19 22 -19 22 3 10 12 -6 25 -16
28 -21z m-2714 2 c-12 -23 -134 -152 -144 -152 -23 0 2 37 70 99 42 39 78 71
80 71 2 0 -1 -8 -6 -18z m3628 -4 c-7 -13 -40 -58 -73 -101 -34 -43 -72 -93
-86 -111 -34 -44 -70 -88 -138 -166 -71 -82 -363 -373 -421 -420 -24 -19 -48
-39 -55 -45 -204 -177 -376 -308 -376 -286 0 6 9 15 19 21 11 5 25 16 33 22 7
7 36 29 63 48 28 19 55 38 60 42 6 5 20 16 32 26 124 99 212 181 413 382 279
279 265 263 439 495 66 88 88 114 99 115 1 0 -3 -10 -9 -22z m-6371 -5 c-10
-2 -26 -2 -35 0 -10 3 -2 5 17 5 19 0 27 -2 18 -5z m-78 -17 c0 -2 -7 -6 -15
-10 -8 -3 -15 -1 -15 4 0 6 7 10 15 10 8 0 15 -2 15 -4z m1883 -10 c6 -16 100
-46 141 -46 14 0 26 -4 26 -10 0 -13 -3 -13 -75 5 -33 8 -71 14 -83 15 -30 0
-78 36 -60 43 24 10 46 7 51 -7z m1495 -29 c-22 -46 -114 -55 -140 -14 -14 22
-8 27 18 16 31 -11 59 -4 93 23 31 23 45 11 29 -25z m2182 33 c0 -5 -2 -10 -4
-10 -3 0 -8 5 -11 10 -3 6 -1 10 4 10 6 0 11 -4 11 -10z m-3117 -82 c-22 -25
-53 -42 -61 -33 -4 3 11 23 33 44 28 27 41 34 43 24 2 -8 -4 -24 -15 -35z
m-2358 22 c-10 -11 -20 -18 -23 -15 -7 6 18 35 31 35 5 0 2 -9 -8 -20z m446
-7 c16 -10 29 -24 29 -32 0 -11 -3 -11 -18 2 -10 10 -23 17 -29 17 -6 0 -16 7
-23 15 -17 21 3 20 41 -2z m2303 -13 c35 -13 33 -30 -3 -30 -31 0 -47 13 -36
30 8 12 8 12 39 0z m151 -10 c4 -6 -6 -10 -22 -9 -25 0 -26 1 -8 9 11 5 21 9
22 9 1 1 5 -3 8 -9z m-625 -20 c0 -5 -7 -7 -15 -4 -8 4 -15 8 -15 10 0 2 7 4
15 4 8 0 15 -4 15 -10z m-2341 -17 c-8 -10 -29 -33 -47 -53 -19 -19 -41 -45
-49 -57 -8 -13 -19 -23 -24 -23 -22 0 -4 27 58 86 67 64 88 80 62 47z m5010
-58 c-13 -19 -26 -35 -29 -35 -3 0 -21 -14 -40 -30 -19 -17 -43 -33 -53 -36
-20 -6 -47 12 -47 32 0 8 -4 14 -10 14 -12 0 -34 40 -26 47 3 3 9 -3 13 -13 8
-21 43 -53 58 -54 12 0 52 30 109 82 23 20 43 35 45 32 2 -2 -7 -19 -20 -39z
m-4171 -95 c17 -11 32 -24 32 -30 0 -13 -4 -13 -47 5 -33 14 -38 14 -56 -2
-20 -18 -20 -18 -3 15 19 37 29 39 74 12z m3498 -38 c43 -29 43 -29 271 -216
145 -120 173 -146 157 -146 -12 0 -248 189 -329 263 -11 10 -48 38 -82 63
l-62 44 -33 -20 c-49 -30 -57 -24 -12 10 21 16 41 30 44 30 3 0 23 -12 46 -28z
m-3201 -132 c3 -5 -13 -1 -37 10 -23 10 -44 24 -46 30 -5 13 73 -24 83 -40z
m-711 -132 c44 -32 74 -35 117 -12 36 18 44 15 25 -11 -11 -15 -25 -18 -81
-16 -63 2 -71 5 -97 34 -49 57 -38 58 36 5z m1033 16 c43 -17 57 -34 28 -34
-25 0 -85 28 -85 39 0 15 7 14 57 -5z m3024 -48 c-6 -7 -25 -19 -41 -26 -17
-7 -30 -16 -30 -20 0 -11 -79 -42 -90 -35 -17 10 0 31 27 33 14 1 51 17 82 36
56 35 74 39 52 12z m-2678 -50 c37 -7 71 -17 75 -21 4 -4 -6 -5 -23 -1 -16 3
-56 9 -87 13 -33 3 -63 12 -70 21 -11 13 -10 14 12 8 14 -4 55 -13 93 -20z
m1610 -6 c-14 -13 -81 -21 -87 -11 -4 5 13 14 36 19 44 9 66 6 51 -8z m-1423
-40 c46 -12 110 -60 133 -99 24 -41 14 -39 -23 3 -26 29 -86 64 -180 105 -24
11 -24 11 5 6 17 -4 46 -10 65 -15z m963 -33 c4 -10 -9 -14 -55 -13 -52 0 -58
1 -42 13 23 17 90 17 97 0z m-490 -7 c10 0 15 -4 12 -10 -7 -12 -115 -14 -115
-2 0 18 16 24 50 18 19 -3 43 -6 53 -6z m1315 -301 c-4 -11 -181 -68 -223 -72
-11 -1 -21 5 -23 14 -2 12 3 15 20 12 13 -2 66 9 118 25 112 35 113 35 108 21z
m-1759 -47 c-23 -37 -90 -72 -137 -72 -39 0 -158 28 -150 35 2 1 32 -1 68 -7
36 -5 80 -6 99 -3 34 7 104 45 116 65 4 6 9 9 12 7 2 -3 -1 -14 -8 -25z m991
-1 c0 -13 -38 -21 -107 -21 -49 0 -63 3 -63 15 0 12 16 15 85 15 47 0 85 -4
85 -9z m-3000 -108 c0 -7 -39 17 -46 28 -3 6 5 3 20 -6 14 -10 26 -19 26 -22z
m5065 -41 c-50 -33 -117 -74 -150 -92 -33 -18 -64 -36 -70 -40 -5 -5 -50 -29
-100 -54 -49 -26 -97 -51 -105 -56 -34 -22 -213 -100 -218 -95 -3 2 21 16 54
31 93 41 221 107 354 183 197 113 211 121 270 159 19 12 39 22 44 22 6 0 -30
-26 -79 -58z m-4840 -87 c44 -26 127 -73 185 -103 116 -60 153 -85 75 -51
-120 53 -453 244 -455 261 0 8 71 -32 195 -107z m3000 85 c3 -5 1 -10 -4 -10
-6 0 -11 5 -11 10 0 6 2 10 4 10 3 0 8 -4 11 -10z m-2569 -317 c-6 -6 -36 9
-36 18 0 5 9 4 20 -3 10 -7 18 -14 16 -15z m179 -68 c38 -17 94 -40 122 -50
29 -10 51 -21 49 -23 -5 -4 -156 47 -171 58 -5 4 -21 11 -34 15 -14 4 -38 16
-55 27 -27 17 -28 19 -6 12 13 -4 56 -21 95 -39z m3561 36 c-6 -9 -46 -22 -46
-15 0 3 10 9 23 14 29 11 29 11 23 1z m-111 -50 c-79 -38 -176 -73 -183 -66
-3 3 8 10 24 15 16 6 65 26 109 44 98 41 132 46 50 7z m-206 -81 c-23 -13
-217 -76 -309 -100 -41 -11 -100 -27 -130 -35 -123 -34 -702 -118 -790 -114
-29 1 24 16 80 23 279 31 417 51 545 77 190 39 475 112 540 138 54 22 94 28
64 11z m-2899 -31 c25 -14 -9 -10 -50 7 l-35 14 35 -6 c19 -4 42 -10 50 -15z
m86 -23 c110 -32 246 -66 364 -90 157 -32 565 -84 730 -93 109 -6 118 -8 75
-15 -62 -9 -125 -6 -330 16 -368 40 -724 113 -875 179 -45 20 -27 21 36 3z"/>
<path d="M9410 8666 c0 -7 6 -19 13 -25 8 -6 22 -31 33 -56 10 -25 22 -45 26
-45 4 0 8 -9 8 -20 0 -11 7 -20 15 -20 8 0 15 -7 15 -15 0 -8 4 -15 9 -15 5 0
17 -13 28 -29 10 -16 38 -55 63 -87 25 -33 50 -70 57 -84 10 -22 11 -23 12 -5
1 21 -87 173 -121 209 -10 11 -18 23 -18 28 0 4 -6 16 -14 25 -53 65 -87 111
-98 131 -13 25 -28 29 -28 8z"/>
<path d="M9700 8246 c0 -9 5 -16 10 -16 6 0 10 4 10 9 0 6 -4 13 -10 16 -5 3
-10 -1 -10 -9z"/>
<path d="M9715 8210 c-3 -5 -1 -10 4 -10 6 0 11 5 11 10 0 6 -2 10 -4 10 -3 0
-8 -4 -11 -10z"/>
<path d="M9760 8154 c0 -13 18 -39 24 -34 2 3 -2 14 -10 24 -8 11 -14 16 -14
10z"/>
<path d="M9801 8054 c0 -11 3 -14 6 -6 3 7 2 16 -1 19 -3 4 -6 -2 -5 -13z"/>
<path d="M1430 5533 c1 -25 2 -26 14 -11 16 22 29 12 16 -12 -5 -9 -6 -27 -3
-39 l6 -22 19 21 c15 16 17 25 9 33 -6 6 -11 21 -11 34 0 18 -6 23 -25 23 -21
0 -25 -5 -25 -27z"/>
<path d="M1431 5414 c0 -11 3 -14 6 -6 3 7 2 16 -1 19 -3 4 -6 -2 -5 -13z"/>
<path d="M1490 5415 c0 -8 4 -15 10 -15 5 0 7 7 4 15 -4 8 -8 15 -10 15 -2 0
-4 -7 -4 -15z"/>
<path d="M1454 5298 c3 -13 6 -31 6 -41 0 -10 4 -16 8 -13 11 7 2 76 -10 76
-6 0 -8 -10 -4 -22z"/>
<path d="M10361 5174 c0 -11 3 -14 6 -6 3 7 2 16 -1 19 -3 4 -6 -2 -5 -13z"/>
<path d="M10327 5133 c-3 -16 -3 -30 -1 -33 7 -7 24 23 24 43 0 27 -17 20 -23
-10z"/>
<path d="M10260 5118 c0 -13 5 -18 14 -15 8 3 17 1 20 -6 2 -7 5 -1 5 13 1 19
-4 26 -19 27 -14 1 -20 -4 -20 -19z"/>
<path d="M10304 5064 c3 -9 6 -18 6 -20 0 -2 5 -4 10 -4 6 0 10 9 10 20 0 12
-7 20 -16 20 -11 0 -14 -5 -10 -16z"/>
<path d="M10270 5036 c0 -8 5 -18 10 -21 6 -3 10 3 10 14 0 12 -4 21 -10 21
-5 0 -10 -6 -10 -14z"/>
<path d="M10310 4981 c0 -12 5 -21 10 -21 6 0 10 6 10 14 0 8 -4 18 -10 21 -5
3 -10 -3 -10 -14z"/>
<path d="M6089 9763 c-12 -27 -29 -67 -40 -90 -10 -24 -19 -47 -19 -52 0 -13
38 -21 108 -21 45 0 62 4 62 13 0 8 -13 54 -30 103 -16 49 -30 90 -30 92 0 1
-7 2 -16 2 -9 0 -24 -20 -35 -47z"/>
<path d="M5000 9754 c-83 -15 -81 -8 -46 -144 13 -52 27 -115 31 -140 14 -87
21 -91 118 -63 154 43 200 189 97 305 -36 41 -39 42 -106 44 -38 1 -80 0 -94
-2z"/>
<path d="M7600 9363 c-63 -49 -110 -96 -110 -109 0 -17 104 -84 130 -84 12 0
22 9 25 23 10 41 10 190 0 193 -5 2 -26 -8 -45 -23z"/>
<path d="M8141 9033 c-69 -78 -74 -99 -30 -136 44 -37 102 -67 130 -67 28 0
99 71 99 100 0 12 -7 36 -16 53 -17 35 -97 107 -119 107 -7 0 -36 -26 -64 -57z"/>
<path d="M8622 8574 c-49 -38 -72 -62 -72 -77 0 -12 22 -42 55 -74 46 -44 60
-53 91 -53 50 0 114 64 114 114 0 46 -76 146 -111 146 -3 0 -38 -25 -77 -56z"/>
<path d="M5965 5810 c-3 -5 -1 -10 4 -10 6 0 11 5 11 10 0 6 -2 10 -4 10 -3 0
-8 -4 -11 -10z"/>
<path d="M9220 5540 c0 -5 5 -10 11 -10 5 0 7 5 4 10 -3 6 -8 10 -11 10 -2 0
-4 -4 -4 -10z"/>
<path d="M7680 5219 c0 -5 5 -7 10 -4 6 3 10 8 10 11 0 2 -4 4 -10 4 -5 0 -10
-5 -10 -11z"/>
<path d="M9654 4948 c-4 -5 -16 -13 -28 -18 -17 -6 -14 -8 16 -7 20 1 34 4 32
6 -2 2 1 9 6 16 7 8 5 12 -6 12 -8 0 -17 -4 -20 -9z"/>
<path d="M9560 4900 c-8 -5 -12 -12 -9 -15 4 -3 12 1 19 10 14 17 11 19 -10 5z"/>
<path d="M9320 4689 c0 -5 5 -7 10 -4 6 3 10 8 10 11 0 2 -4 4 -10 4 -5 0 -10
-5 -10 -11z"/>
</g>
</svg>
