<svg xmlns="http://www.w3.org/2000/svg" viewBox="0 0 512 512">
  <defs>
    <linearGradient id="goldGradient" x1="0%" y1="0%" x2="100%" y2="100%">
      <stop offset="0%" stop-color="#FCD34D" />
      <stop offset="50%" stop-color="#F59E0B" />
      <stop offset="100%" stop-color="#B45309" />
    </linearGradient>
    <linearGradient id="darkGradient" x1="0%" y1="0%" x2="100%" y2="100%">
      <stop offset="0%" stop-color="#1F2937" />
      <stop offset="100%" stop-color="#030712" />
    </linearGradient>
    <filter id="glow" x="-20%" y="-20%" width="140%" height="140%">
      <feGaussianBlur stdDeviation="8" result="blur" />
      <feComposite in="SourceGraphic" in2="blur" operator="over" />
    </filter>
  </defs>
  
  <!-- Escudo Base -->
  <path d="M256 32L460 112V256C460 380 256 480 256 480C256 480 52 380 52 256V112L256 32Z" fill="url(#darkGradient)" stroke="url(#goldGradient)" stroke-width="20" stroke-linejoin="round"/>
  
  <!-- Patrón Hexagonal Interno -->
  <path d="M256 90L370 160V310L256 380L142 310V160L256 90Z" fill="none" stroke="url(#goldGradient)" stroke-width="16" stroke-linejoin="round" filter="url(#glow)"/>
  
  <!-- Estrella Central -->
  <path d="M256 160L282 230H356L296 276L320 346L256 300L192 346L216 276L156 230H230L256 160Z" fill="url(#goldGradient)" filter="url(#glow)"/>
</svg>
